<?xml version="1.0" encoding="UTF-8" standalone="no"?>
<!-- Created with Inkscape (http://www.inkscape.org/) -->

<svg
   xmlns:dc="http://purl.org/dc/elements/1.1/"
   xmlns:cc="http://creativecommons.org/ns#"
   xmlns:rdf="http://www.w3.org/1999/02/22-rdf-syntax-ns#"
   xmlns:svg="http://www.w3.org/2000/svg"
   xmlns="http://www.w3.org/2000/svg"
   version="1.1"
   width="892.91339"
   height="160.15747"
   id="svg44112">
  <defs
     id="defs44114" />
  <metadata
     id="metadata44117">
    <rdf:RDF>
      <cc:Work
         rdf:about="">
        <dc:format>image/svg+xml</dc:format>
        <dc:type
           rdf:resource="http://purl.org/dc/dcmitype/StillImage" />
        <dc:title></dc:title>
      </cc:Work>
    </rdf:RDF>
  </metadata>
  <g
     transform="translate(22.472091,-247.17107)"
     id="layer1">
    <g
       transform="matrix(3.7028248,0,0,3.7028248,-1184.0993,-1273.7116)"
       id="g44161">
      <g
         transform="matrix(1.25,0,0,-1.25,332.21821,421.0565)"
         id="g43864">
        <path
           d="m 0,0 0,-6.606 -7.431,0 0,6.606 -6.607,0 0,-18.085 6.607,0 0,6.887 7.431,0 0,-6.887 6.607,0 0,18.085"
           id="path43866"
           style="fill:#002a5c;fill-opacity:1;fill-rule:nonzero;stroke:none" />
      </g>
      <g
         transform="matrix(1.25,0,0,-1.25,360.42571,421.0565)"
         id="g43868">
        <path
           d="m 0,0 0,-11.666 c 0,-1.786 -0.609,-1.967 -3.213,-1.967 -2.676,0 -3.761,0.067 -3.761,1.756 l 0,11.877 -6.607,0 0,-11.971 c 0,-4.349 0.981,-6.255 10.368,-6.255 6.219,0 9.82,1.023 9.82,6.255 L 6.607,0"
           id="path43870"
           style="fill:#002a5c;fill-opacity:1;fill-rule:nonzero;stroke:none" />
      </g>
      <g
         transform="matrix(1.25,0,0,-1.25,392.59071,421.0565)"
         id="g43872">
        <path
           d="M 0,0 C 0,0 0.322,-11.888 0.354,-13.092 -0.134,-12.085 -5.998,0 -5.998,0 l -10.712,0 0,-18.085 6.613,0 c 0,0 -0.321,11.867 -0.354,13.084 0.489,-1.022 6.26,-13.084 6.26,-13.084 l 10.805,0 0,18.085"
           id="path43874"
           style="fill:#002a5c;fill-opacity:1;fill-rule:nonzero;stroke:none" />
      </g>
      <g
         transform="matrix(1.25,0,0,-1.25,403.26321,421.0565)"
         id="g43876">
        <path
           d="m 0,0 0,-4.593 5.846,0 0,-13.492 6.607,0 0,13.492 6.151,0 0,4.593"
           id="path43878"
           style="fill:#002a5c;fill-opacity:1;fill-rule:nonzero;stroke:none" />
      </g>
      <g
         transform="matrix(1.25,0,0,-1.25,427.87196,427.91025)"
         id="g43880">
        <path
           d="m 0,0 c 0,-5.092 3.215,-5.262 8.542,-5.542 l 2.18,-0.114 c 2.737,-0.134 2.737,-0.157 2.737,-1.371 0,-1.156 -0.53,-1.359 -3.547,-1.359 -3.111,0 -3.579,0.23 -3.579,1.757 l 0,0.258 -6.364,0 0,-0.258 c 0,-6.115 4.388,-6.115 9.943,-6.115 4.804,0 7.681,0.64 9.054,2.015 1.102,1.102 1.101,2.513 1.1,3.878 l 0,0.128 c 0,4.235 -1.85,4.939 -8.679,5.318 l -2.527,0.14 c -1.752,0.102 -2.253,0.18 -2.253,1.288 0,0.721 0,1.241 3.305,1.241 2.549,0 3.151,-0.056 3.151,-1.545 l 0,-0.258 6.364,0 0,0.984 c 0,5.178 -4.622,5.178 -9.515,5.178 C 3.745,5.623 0,5.244 0,0"
           id="path43882"
           style="fill:#002a5c;fill-opacity:1;fill-rule:nonzero;stroke:none" />
      </g>
      <g
         transform="matrix(1.25,0,0,-1.25,478.38196,421.0565)"
         id="g43884">
        <path
           d="M 0,0 C 0,0 -3.825,-10.191 -4.072,-10.85 -4.329,-10.199 -8.354,0 -8.354,0 l -10.087,0 0,-18.085 6.619,0 c 0,0 -0.506,11.194 -0.579,12.808 0.625,-1.441 5.559,-12.808 5.559,-12.808 l 5.608,0 c 0,0 4.958,11.542 5.531,12.877 C 4.229,-6.719 3.715,-18.085 3.715,-18.085 l 6.619,0 0,18.085"
           id="path43886"
           style="fill:#002a5c;fill-opacity:1;fill-rule:nonzero;stroke:none" />
      </g>
      <g
         transform="matrix(1.25,0,0,-1.25,513.97946,421.0565)"
         id="g43888">
        <path
           d="m 0,0 -9.609,0 -7.053,-18.085 6.891,0 c 0,0 1.015,2.722 1.127,3.021 l 7.836,0 c 0.115,-0.293 1.187,-3.021 1.187,-3.021 l 6.768,0 L 0,0 z m -7.883,-11.644 2.959,8.13 0.421,0 3.024,-8.13"
           id="path43890"
           style="fill:#002a5c;fill-opacity:1;fill-rule:nonzero;stroke:none" />
      </g>
      <g
         transform="matrix(1.25,0,0,-1.25,545.63321,421.0565)"
         id="g43892">
        <path
           d="M 0,0 C 0,0 0.322,-11.892 0.355,-13.093 -0.132,-12.09 -5.998,0 -5.998,0 l -10.712,0 0,-18.085 6.613,0 c 0,0 -0.321,11.867 -0.354,13.084 0.489,-1.022 6.26,-13.084 6.26,-13.084 l 10.805,0 0,18.085"
           id="path43894"
           style="fill:#002a5c;fill-opacity:1;fill-rule:nonzero;stroke:none" />
      </g>
      <path
         d="m 314.67196,416.3665 239.2275,0 0,-4.68488 -239.2275,0 0,4.68488 z"
         id="path43896"
         style="fill:#910027;fill-opacity:1;fill-rule:nonzero;stroke:none" />
      <path
         d="m 314.67196,453.04275 239.2275,0 0,-4.685 -239.2275,0 0,4.685 z"
         id="path43898"
         style="fill:#910027;fill-opacity:1;fill-rule:nonzero;stroke:none" />
    </g>
  </g>
</svg>
